<svg width="456" height="45" viewBox="0 0 456 45" fill="none" xmlns="http://www.w3.org/2000/svg">
<path d="M11.9659 27.9091V41H10.4318L3.2983 30.7216H3.17045V41H1.58523V27.9091H3.11932L10.2784 38.2131H10.4062V27.9091H11.9659ZM17.8226 41.2301C17.2005 41.2301 16.6358 41.1129 16.1287 40.8786C15.6216 40.6399 15.2189 40.2969 14.9206 39.8494C14.6223 39.3977 14.4732 38.8523 14.4732 38.2131C14.4732 37.6506 14.584 37.1946 14.8056 36.8452C15.0272 36.4915 15.3233 36.2145 15.6941 36.0142C16.0648 35.8139 16.4739 35.6648 16.9213 35.5668C17.373 35.4645 17.8269 35.3835 18.2828 35.3239C18.8794 35.2472 19.3631 35.1896 19.7338 35.1513C20.1088 35.1087 20.3816 35.0384 20.552 34.9403C20.7267 34.8423 20.8141 34.6719 20.8141 34.429V34.3778C20.8141 33.7472 20.6415 33.2571 20.2963 32.9077C19.9554 32.5582 19.4377 32.3835 18.7431 32.3835C18.0229 32.3835 17.4583 32.5412 17.0492 32.8565C16.6401 33.1719 16.3525 33.5085 16.1863 33.8665L14.7544 33.3551C15.0101 32.7585 15.351 32.294 15.7772 31.9616C16.2076 31.625 16.6763 31.3906 17.1834 31.2585C17.6948 31.1222 18.1976 31.054 18.6919 31.054C19.0073 31.054 19.3695 31.0923 19.7786 31.169C20.1919 31.2415 20.5904 31.3928 20.9739 31.6229C21.3617 31.853 21.6834 32.2003 21.9391 32.6648C22.1948 33.1293 22.3226 33.7514 22.3226 34.5312V41H20.8141V39.6705H20.7374C20.6351 39.8835 20.4647 40.1115 20.226 40.3544C19.9874 40.5973 19.6699 40.804 19.2736 40.9744C18.8773 41.1449 18.3936 41.2301 17.8226 41.2301ZM18.0527 39.875C18.6493 39.875 19.1522 39.7578 19.5613 39.5234C19.9746 39.2891 20.2857 38.9865 20.4945 38.6158C20.7076 38.245 20.8141 37.8551 20.8141 37.446V36.0653C20.7502 36.142 20.6096 36.2124 20.3922 36.2763C20.1792 36.3359 19.932 36.3892 19.6507 36.4361C19.3738 36.4787 19.1032 36.517 18.839 36.5511C18.579 36.581 18.3681 36.6065 18.2061 36.6278C17.8141 36.679 17.4476 36.7621 17.1067 36.8771C16.7701 36.9879 16.4973 37.1562 16.2885 37.3821C16.084 37.6037 15.9817 37.9062 15.9817 38.2898C15.9817 38.8139 16.1756 39.2102 16.5634 39.4787C16.9554 39.7429 17.4519 39.875 18.0527 39.875ZM29.3459 31.1818V32.4602H24.2578V31.1818H29.3459ZM25.7408 28.8295H27.2493V38.1875C27.2493 38.6136 27.3111 38.9332 27.4347 39.1463C27.5625 39.3551 27.7244 39.4957 27.9205 39.5682C28.1207 39.6364 28.3317 39.6705 28.5533 39.6705C28.7195 39.6705 28.8558 39.6619 28.9624 39.6449C29.0689 39.6236 29.1541 39.6065 29.218 39.5938L29.5249 40.9489C29.4226 40.9872 29.2798 41.0256 29.0966 41.0639C28.9134 41.1065 28.6811 41.1278 28.3999 41.1278C27.9737 41.1278 27.5561 41.0362 27.147 40.853C26.7422 40.6697 26.4055 40.3906 26.1371 40.0156C25.8729 39.6406 25.7408 39.1676 25.7408 38.5966V28.8295ZM34.5043 41.2301C33.8821 41.2301 33.3175 41.1129 32.8104 40.8786C32.3033 40.6399 31.9006 40.2969 31.6023 39.8494C31.304 39.3977 31.1548 38.8523 31.1548 38.2131C31.1548 37.6506 31.2656 37.1946 31.4872 36.8452C31.7088 36.4915 32.005 36.2145 32.3757 36.0142C32.7464 35.8139 33.1555 35.6648 33.603 35.5668C34.0547 35.4645 34.5085 35.3835 34.9645 35.3239C35.5611 35.2472 36.0447 35.1896 36.4155 35.1513C36.7905 35.1087 37.0632 35.0384 37.2337 34.9403C37.4084 34.8423 37.4957 34.6719 37.4957 34.429V34.3778C37.4957 33.7472 37.3232 33.2571 36.978 32.9077C36.6371 32.5582 36.1193 32.3835 35.4247 32.3835C34.7045 32.3835 34.1399 32.5412 33.7308 32.8565C33.3217 33.1719 33.0341 33.5085 32.8679 33.8665L31.4361 33.3551C31.6918 32.7585 32.0327 32.294 32.4588 31.9616C32.8892 31.625 33.358 31.3906 33.8651 31.2585C34.3764 31.1222 34.8793 31.054 35.3736 31.054C35.6889 31.054 36.0511 31.0923 36.4602 31.169C36.8736 31.2415 37.272 31.3928 37.6555 31.6229C38.0433 31.853 38.3651 32.2003 38.6207 32.6648C38.8764 33.1293 39.0043 33.7514 39.0043 34.5312V41H37.4957V39.6705H37.419C37.3168 39.8835 37.1463 40.1115 36.9077 40.3544C36.669 40.5973 36.3516 40.804 35.9553 40.9744C35.5589 41.1449 35.0753 41.2301 34.5043 41.2301ZM34.7344 39.875C35.331 39.875 35.8338 39.7578 36.2429 39.5234C36.6563 39.2891 36.9673 38.9865 37.1761 38.6158C37.3892 38.245 37.4957 37.8551 37.4957 37.446V36.0653C37.4318 36.142 37.2912 36.2124 37.0739 36.2763C36.8608 36.3359 36.6136 36.3892 36.3324 36.4361C36.0554 36.4787 35.7848 36.517 35.5206 36.5511C35.2607 36.581 35.0497 36.6065 34.8878 36.6278C34.4957 36.679 34.1293 36.7621 33.7884 36.8771C33.4517 36.9879 33.179 37.1562 32.9702 37.3821C32.7656 37.6037 32.6634 37.9062 32.6634 38.2898C32.6634 38.8139 32.8572 39.2102 33.245 39.4787C33.6371 39.7429 34.1335 39.875 34.7344 39.875ZM43.2662 27.9091V41H41.7576V27.9091H43.2662ZM46.0291 41V31.1818H47.5376V41H46.0291ZM46.7962 29.5455C46.5021 29.5455 46.2486 29.4453 46.0355 29.245C45.8267 29.0447 45.7223 28.804 45.7223 28.5227C45.7223 28.2415 45.8267 28.0007 46.0355 27.8004C46.2486 27.6001 46.5021 27.5 46.7962 27.5C47.0902 27.5 47.3416 27.6001 47.5504 27.8004C47.7635 28.0007 47.87 28.2415 47.87 28.5227C47.87 28.804 47.7635 29.0447 47.5504 29.245C47.3416 29.4453 47.0902 29.5455 46.7962 29.5455ZM53.1898 41.2301C52.5676 41.2301 52.003 41.1129 51.4959 40.8786C50.9888 40.6399 50.5861 40.2969 50.2878 39.8494C49.9895 39.3977 49.8404 38.8523 49.8404 38.2131C49.8404 37.6506 49.9512 37.1946 50.1728 36.8452C50.3944 36.4915 50.6905 36.2145 51.0613 36.0142C51.432 35.8139 51.8411 35.6648 52.2885 35.5668C52.7402 35.4645 53.1941 35.3835 53.65 35.3239C54.2466 35.2472 54.7303 35.1896 55.101 35.1513C55.476 35.1087 55.7488 35.0384 55.9192 34.9403C56.0939 34.8423 56.1813 34.6719 56.1813 34.429V34.3778C56.1813 33.7472 56.0087 33.2571 55.6635 32.9077C55.3226 32.5582 54.8049 32.3835 54.1103 32.3835C53.3901 32.3835 52.8255 32.5412 52.4164 32.8565C52.0073 33.1719 51.7196 33.5085 51.5534 33.8665L50.1216 33.3551C50.3773 32.7585 50.7182 32.294 51.1444 31.9616C51.5748 31.625 52.0435 31.3906 52.5506 31.2585C53.062 31.1222 53.5648 31.054 54.0591 31.054C54.3745 31.054 54.7367 31.0923 55.1458 31.169C55.5591 31.2415 55.9576 31.3928 56.3411 31.6229C56.7289 31.853 57.0506 32.2003 57.3063 32.6648C57.562 33.1293 57.6898 33.7514 57.6898 34.5312V41H56.1813V39.6705H56.1046C56.0023 39.8835 55.8319 40.1115 55.5932 40.3544C55.3546 40.5973 55.0371 40.804 54.6408 40.9744C54.2445 41.1449 53.7608 41.2301 53.1898 41.2301ZM53.4199 39.875C54.0165 39.875 54.5194 39.7578 54.9284 39.5234C55.3418 39.2891 55.6529 38.9865 55.8617 38.6158C56.0748 38.245 56.1813 37.8551 56.1813 37.446V36.0653C56.1174 36.142 55.9767 36.2124 55.7594 36.2763C55.5463 36.3359 55.2992 36.3892 55.0179 36.4361C54.7409 36.4787 54.4703 36.517 54.2061 36.5511C53.9462 36.581 53.7353 36.6065 53.5733 36.6278C53.1813 36.679 52.8148 36.7621 52.4739 36.8771C52.1373 36.9879 51.8645 37.1562 51.6557 37.3821C51.4512 37.6037 51.3489 37.9062 51.3489 38.2898C51.3489 38.8139 51.5428 39.2102 51.9306 39.4787C52.3226 39.7429 52.8191 39.875 53.4199 39.875ZM69.75 41H65.7102V27.9091H69.929C71.1989 27.9091 72.2855 28.1712 73.1889 28.6953C74.0923 29.2152 74.7848 29.9631 75.2663 30.9389C75.7479 31.9105 75.9886 33.0739 75.9886 34.429C75.9886 35.7926 75.7457 36.9666 75.2599 37.951C74.7741 38.9311 74.0668 39.6854 73.1378 40.2138C72.2088 40.7379 71.0795 41 69.75 41ZM67.2955 39.5938H69.6477C70.7301 39.5938 71.6271 39.3849 72.3388 38.9673C73.0504 38.5497 73.581 37.9553 73.9304 37.1839C74.2798 36.4126 74.4545 35.4943 74.4545 34.429C74.4545 33.3722 74.282 32.4624 73.9368 31.6996C73.5916 30.9325 73.076 30.3445 72.3899 29.9354C71.7038 29.522 70.8494 29.3153 69.8267 29.3153H67.2955V39.5938ZM82.4318 41.2045C81.5455 41.2045 80.7678 40.9936 80.0987 40.5717C79.4339 40.1499 78.9141 39.5597 78.5391 38.8011C78.1683 38.0426 77.983 37.1562 77.983 36.142C77.983 35.1193 78.1683 34.2266 78.5391 33.4638C78.9141 32.701 79.4339 32.1087 80.0987 31.6868C80.7678 31.2649 81.5455 31.054 82.4318 31.054C83.3182 31.054 84.0938 31.2649 84.7585 31.6868C85.4276 32.1087 85.9474 32.701 86.3182 33.4638C86.6932 34.2266 86.8807 35.1193 86.8807 36.142C86.8807 37.1562 86.6932 38.0426 86.3182 38.8011C85.9474 39.5597 85.4276 40.1499 84.7585 40.5717C84.0938 40.9936 83.3182 41.2045 82.4318 41.2045ZM82.4318 39.8494C83.1051 39.8494 83.6591 39.6768 84.0938 39.3317C84.5284 38.9865 84.8501 38.5327 85.0589 37.9702C85.2678 37.4077 85.3722 36.7983 85.3722 36.142C85.3722 35.4858 85.2678 34.8743 85.0589 34.3075C84.8501 33.7408 84.5284 33.2827 84.0938 32.9332C83.6591 32.5838 83.1051 32.4091 82.4318 32.4091C81.7585 32.4091 81.2045 32.5838 80.7699 32.9332C80.3352 33.2827 80.0135 33.7408 79.8047 34.3075C79.5959 34.8743 79.4915 35.4858 79.4915 36.142C79.4915 36.7983 79.5959 37.4077 79.8047 37.9702C80.0135 38.5327 80.3352 38.9865 80.7699 39.3317C81.2045 39.6768 81.7585 39.8494 82.4318 39.8494ZM90.6919 27.9091V41H89.1834V27.9091H90.6919ZM97.418 44.8864C96.6893 44.8864 96.0629 44.7926 95.5387 44.6051C95.0146 44.4219 94.5778 44.179 94.2283 43.8764C93.8832 43.5781 93.6083 43.2585 93.4038 42.9176L94.6055 42.0739C94.7418 42.2528 94.9144 42.4574 95.1232 42.6875C95.332 42.9219 95.6175 43.1243 95.9798 43.2947C96.3462 43.4695 96.8256 43.5568 97.418 43.5568C98.2106 43.5568 98.8647 43.3651 99.3803 42.9815C99.896 42.598 100.154 41.9972 100.154 41.179V39.1847H100.026C99.9151 39.3636 99.7575 39.5852 99.5529 39.8494C99.3526 40.1094 99.0629 40.3416 98.6836 40.5462C98.3086 40.7464 97.8015 40.8466 97.1623 40.8466C96.3697 40.8466 95.658 40.6591 95.0273 40.2841C94.4009 39.9091 93.9045 39.3636 93.538 38.6477C93.1758 37.9318 92.9947 37.0625 92.9947 36.0398C92.9947 35.0341 93.1715 34.1584 93.5252 33.4126C93.8789 32.6626 94.3711 32.0831 95.0018 31.674C95.6325 31.2607 96.3612 31.054 97.1879 31.054C97.8271 31.054 98.3342 31.1605 98.7092 31.3736C99.0884 31.5824 99.3782 31.821 99.5785 32.0895C99.783 32.3537 99.9407 32.571 100.051 32.7415H100.205V31.1818H101.662V41.2812C101.662 42.125 101.471 42.8111 101.087 43.3395C100.708 43.8722 100.196 44.2621 99.5529 44.5092C98.9137 44.7607 98.2021 44.8864 97.418 44.8864ZM97.3668 39.4915C97.9719 39.4915 98.4833 39.353 98.9009 39.076C99.3185 38.799 99.636 38.4006 99.8533 37.8807C100.071 37.3608 100.179 36.7386 100.179 36.0142C100.179 35.3068 100.073 34.6825 99.8597 34.1413C99.6467 33.6001 99.3313 33.1761 98.9137 32.8693C98.4961 32.5625 97.9805 32.4091 97.3668 32.4091C96.7276 32.4091 96.195 32.571 95.7688 32.8949C95.3469 33.2187 95.0295 33.6534 94.8164 34.1989C94.6076 34.7443 94.5032 35.3494 94.5032 36.0142C94.5032 36.696 94.6097 37.299 94.8228 37.8232C95.0401 38.343 95.3597 38.7521 95.7816 39.0504C96.2077 39.3445 96.7362 39.4915 97.3668 39.4915ZM110.611 36.9858V31.1818H112.12V41H110.611V39.3381H110.509C110.279 39.8366 109.921 40.2607 109.435 40.6101C108.949 40.9553 108.336 41.1278 107.594 41.1278C106.98 41.1278 106.435 40.9936 105.958 40.7251C105.48 40.4524 105.105 40.0433 104.833 39.4979C104.56 38.9482 104.424 38.2557 104.424 37.4205V31.1818H105.932V37.3182C105.932 38.0341 106.132 38.6051 106.533 39.0312C106.938 39.4574 107.453 39.6705 108.08 39.6705C108.455 39.6705 108.836 39.5746 109.224 39.3828C109.616 39.1911 109.944 38.897 110.208 38.5007C110.477 38.1044 110.611 37.5994 110.611 36.9858ZM121.837 33.3807L120.482 33.7642C120.397 33.5384 120.271 33.3189 120.105 33.1058C119.943 32.8885 119.721 32.7095 119.44 32.5689C119.159 32.4283 118.799 32.358 118.36 32.358C117.759 32.358 117.258 32.4964 116.858 32.7734C116.461 33.0462 116.263 33.3935 116.263 33.8153C116.263 34.1903 116.4 34.4865 116.672 34.7038C116.945 34.9212 117.371 35.1023 117.951 35.2472L119.408 35.6051C120.286 35.8182 120.94 36.1442 121.371 36.5831C121.801 37.0178 122.016 37.5781 122.016 38.2642C122.016 38.8267 121.854 39.3295 121.53 39.7727C121.211 40.2159 120.763 40.5653 120.188 40.821C119.613 41.0767 118.944 41.2045 118.181 41.2045C117.18 41.2045 116.351 40.9872 115.694 40.5526C115.038 40.1179 114.623 39.483 114.448 38.6477L115.88 38.2898C116.016 38.8182 116.274 39.2145 116.653 39.4787C117.037 39.7429 117.537 39.875 118.155 39.875C118.858 39.875 119.417 39.7259 119.83 39.4276C120.248 39.125 120.456 38.7628 120.456 38.3409C120.456 38 120.337 37.7145 120.099 37.4844C119.86 37.25 119.493 37.0753 118.999 36.9602L117.363 36.5767C116.464 36.3636 115.803 36.0334 115.381 35.5859C114.964 35.1342 114.755 34.5696 114.755 33.892C114.755 33.3381 114.91 32.848 115.221 32.4219C115.537 31.9957 115.965 31.6612 116.506 31.4183C117.052 31.1754 117.67 31.054 118.36 31.054C119.331 31.054 120.094 31.267 120.648 31.6932C121.206 32.1193 121.603 32.6818 121.837 33.3807ZM125.795 35.0938V41H124.287V27.9091H125.795V32.7159H125.923C126.153 32.2088 126.499 31.8061 126.959 31.5078C127.423 31.2053 128.041 31.054 128.812 31.054C129.482 31.054 130.067 31.1882 130.57 31.4567C131.073 31.7209 131.463 32.1278 131.74 32.6776C132.021 33.223 132.162 33.9176 132.162 34.7614V41H130.653V34.8636C130.653 34.0838 130.451 33.4808 130.046 33.0547C129.646 32.6243 129.089 32.4091 128.378 32.4091C127.884 32.4091 127.44 32.5135 127.048 32.7223C126.661 32.9311 126.354 33.2358 126.128 33.6364C125.906 34.0369 125.795 34.5227 125.795 35.0938ZM134.922 41V31.1818H136.43V41H134.922ZM135.689 29.5455C135.395 29.5455 135.141 29.4453 134.928 29.245C134.719 29.0447 134.615 28.804 134.615 28.5227C134.615 28.2415 134.719 28.0007 134.928 27.8004C135.141 27.6001 135.395 27.5 135.689 27.5C135.983 27.5 136.234 27.6001 136.443 27.8004C136.656 28.0007 136.763 28.2415 136.763 28.5227C136.763 28.804 136.656 29.0447 136.443 29.245C136.234 29.4453 135.983 29.5455 135.689 29.5455ZM140.702 35.0938V41H139.193V31.1818H140.651V32.7159H140.778C141.009 32.2173 141.358 31.8168 141.827 31.5142C142.295 31.2074 142.901 31.054 143.642 31.054C144.307 31.054 144.888 31.1903 145.387 31.4631C145.886 31.7315 146.273 32.1406 146.55 32.6903C146.827 33.2358 146.966 33.9261 146.966 34.7614V41H145.457V34.8636C145.457 34.0923 145.257 33.4915 144.857 33.0611C144.456 32.6264 143.906 32.4091 143.207 32.4091C142.726 32.4091 142.295 32.5135 141.916 32.7223C141.541 32.9311 141.245 33.2358 141.028 33.6364C140.81 34.0369 140.702 34.5227 140.702 35.0938ZM152.612 41.2301C151.99 41.2301 151.425 41.1129 150.918 40.8786C150.411 40.6399 150.008 40.2969 149.71 39.8494C149.411 39.3977 149.262 38.8523 149.262 38.2131C149.262 37.6506 149.373 37.1946 149.595 36.8452C149.816 36.4915 150.112 36.2145 150.483 36.0142C150.854 35.8139 151.263 35.6648 151.71 35.5668C152.162 35.4645 152.616 35.3835 153.072 35.3239C153.669 35.2472 154.152 35.1896 154.523 35.1513C154.898 35.1087 155.171 35.0384 155.341 34.9403C155.516 34.8423 155.603 34.6719 155.603 34.429V34.3778C155.603 33.7472 155.431 33.2571 155.085 32.9077C154.744 32.5582 154.227 32.3835 153.532 32.3835C152.812 32.3835 152.247 32.5412 151.838 32.8565C151.429 33.1719 151.142 33.5085 150.975 33.8665L149.544 33.3551C149.799 32.7585 150.14 32.294 150.566 31.9616C150.997 31.625 151.465 31.3906 151.972 31.2585C152.484 31.1222 152.987 31.054 153.481 31.054C153.796 31.054 154.159 31.0923 154.568 31.169C154.981 31.2415 155.379 31.3928 155.763 31.6229C156.151 31.853 156.472 32.2003 156.728 32.6648C156.984 33.1293 157.112 33.7514 157.112 34.5312V41H155.603V39.6705H155.526C155.424 39.8835 155.254 40.1115 155.015 40.3544C154.776 40.5973 154.459 40.804 154.063 40.9744C153.666 41.1449 153.183 41.2301 152.612 41.2301ZM152.842 39.875C153.438 39.875 153.941 39.7578 154.35 39.5234C154.764 39.2891 155.075 38.9865 155.284 38.6158C155.497 38.245 155.603 37.8551 155.603 37.446V36.0653C155.539 36.142 155.399 36.2124 155.181 36.2763C154.968 36.3359 154.721 36.3892 154.44 36.4361C154.163 36.4787 153.892 36.517 153.628 36.5511C153.368 36.581 153.157 36.6065 152.995 36.6278C152.603 36.679 152.237 36.7621 151.896 36.8771C151.559 36.9879 151.286 37.1562 151.078 37.3821C150.873 37.6037 150.771 37.9062 150.771 38.2898C150.771 38.8139 150.965 39.2102 151.352 39.4787C151.744 39.7429 152.241 39.875 152.842 39.875ZM162.115 39.2102L162.013 39.9006C161.94 40.3864 161.83 40.9062 161.68 41.4602C161.536 42.0142 161.384 42.5362 161.227 43.0263C161.069 43.5163 160.939 43.9063 160.837 44.196H159.686C159.741 43.9233 159.814 43.5632 159.903 43.1158C159.993 42.6683 160.082 42.1676 160.172 41.6136C160.266 41.0639 160.342 40.5014 160.402 39.9261L160.479 39.2102H162.115ZM169.972 44.6818V31.1818H171.43V32.7415H171.609C171.72 32.571 171.873 32.3537 172.069 32.0895C172.269 31.821 172.555 31.5824 172.926 31.3736C173.301 31.1605 173.808 31.054 174.447 31.054C175.274 31.054 176.002 31.2607 176.633 31.674C177.264 32.0874 177.756 32.6733 178.11 33.4318C178.463 34.1903 178.64 35.0852 178.64 36.1165C178.64 37.1562 178.463 38.0575 178.11 38.8203C177.756 39.5788 177.266 40.1669 176.639 40.5845C176.013 40.9979 175.291 41.2045 174.472 41.2045C173.842 41.2045 173.337 41.1001 172.958 40.8913C172.578 40.6783 172.286 40.4375 172.082 40.169C171.877 39.8963 171.72 39.6705 171.609 39.4915H171.481V44.6818H169.972ZM171.455 36.0909C171.455 36.8324 171.564 37.4865 171.781 38.0533C171.999 38.6158 172.316 39.0568 172.734 39.3764C173.151 39.6918 173.663 39.8494 174.268 39.8494C174.899 39.8494 175.425 39.6832 175.847 39.3509C176.273 39.0142 176.593 38.5625 176.806 37.9957C177.023 37.4247 177.132 36.7898 177.132 36.0909C177.132 35.4006 177.025 34.7784 176.812 34.2244C176.603 33.6662 176.286 33.2251 175.86 32.9013C175.438 32.5732 174.907 32.4091 174.268 32.4091C173.654 32.4091 173.139 32.5646 172.721 32.8757C172.303 33.1825 171.988 33.6129 171.775 34.1669C171.562 34.7166 171.455 35.358 171.455 36.0909ZM180.941 41V31.1818H182.399V32.6648H182.501C182.68 32.179 183.004 31.7848 183.472 31.4822C183.941 31.1797 184.47 31.0284 185.058 31.0284C185.169 31.0284 185.307 31.0305 185.473 31.0348C185.639 31.0391 185.765 31.0455 185.85 31.054V32.5881C185.799 32.5753 185.682 32.5561 185.499 32.5305C185.32 32.5007 185.13 32.4858 184.93 32.4858C184.453 32.4858 184.026 32.5859 183.651 32.7862C183.281 32.9822 182.987 33.255 182.769 33.6044C182.556 33.9496 182.45 34.3437 182.45 34.7869V41H180.941ZM191.328 41.2045C190.442 41.2045 189.664 40.9936 188.995 40.5717C188.33 40.1499 187.811 39.5597 187.436 38.8011C187.065 38.0426 186.879 37.1562 186.879 36.142C186.879 35.1193 187.065 34.2266 187.436 33.4638C187.811 32.701 188.33 32.1087 188.995 31.6868C189.664 31.2649 190.442 31.054 191.328 31.054C192.215 31.054 192.99 31.2649 193.655 31.6868C194.324 32.1087 194.844 32.701 195.215 33.4638C195.59 34.2266 195.777 35.1193 195.777 36.142C195.777 37.1562 195.59 38.0426 195.215 38.8011C194.844 39.5597 194.324 40.1499 193.655 40.5717C192.99 40.9936 192.215 41.2045 191.328 41.2045ZM191.328 39.8494C192.002 39.8494 192.556 39.6768 192.99 39.3317C193.425 38.9865 193.747 38.5327 193.955 37.9702C194.164 37.4077 194.269 36.7983 194.269 36.142C194.269 35.4858 194.164 34.8743 193.955 34.3075C193.747 33.7408 193.425 33.2827 192.99 32.9332C192.556 32.5838 192.002 32.4091 191.328 32.4091C190.655 32.4091 190.101 32.5838 189.666 32.9332C189.232 33.2827 188.91 33.7408 188.701 34.3075C188.492 34.8743 188.388 35.4858 188.388 36.142C188.388 36.7983 188.492 37.4077 188.701 37.9702C188.91 38.5327 189.232 38.9865 189.666 39.3317C190.101 39.6768 190.655 39.8494 191.328 39.8494ZM201.787 41.2045C200.969 41.2045 200.247 40.9979 199.62 40.5845C198.994 40.1669 198.504 39.5788 198.15 38.8203C197.797 38.0575 197.62 37.1562 197.62 36.1165C197.62 35.0852 197.797 34.1903 198.15 33.4318C198.504 32.6733 198.996 32.0874 199.627 31.674C200.257 31.2607 200.986 31.054 201.813 31.054C202.452 31.054 202.957 31.1605 203.328 31.3736C203.703 31.5824 203.988 31.821 204.184 32.0895C204.385 32.3537 204.54 32.571 204.651 32.7415H204.779V27.9091H206.287V41H204.83V39.4915H204.651C204.54 39.6705 204.382 39.8963 204.178 40.169C203.973 40.4375 203.681 40.6783 203.302 40.8913C202.923 41.1001 202.418 41.2045 201.787 41.2045ZM201.992 39.8494C202.597 39.8494 203.108 39.6918 203.526 39.3764C203.944 39.0568 204.261 38.6158 204.478 38.0533C204.696 37.4865 204.804 36.8324 204.804 36.0909C204.804 35.358 204.698 34.7166 204.485 34.1669C204.272 33.6129 203.956 33.1825 203.539 32.8757C203.121 32.5646 202.605 32.4091 201.992 32.4091C201.353 32.4091 200.82 32.5732 200.394 32.9013C199.972 33.2251 199.654 33.6662 199.441 34.2244C199.233 34.7784 199.128 35.4006 199.128 36.0909C199.128 36.7898 199.235 37.4247 199.448 37.9957C199.665 38.5625 199.985 39.0142 200.407 39.3509C200.833 39.6832 201.361 39.8494 201.992 39.8494ZM215.447 36.9858V31.1818H216.956V41H215.447V39.3381H215.345C215.115 39.8366 214.757 40.2607 214.271 40.6101C213.785 40.9553 213.172 41.1278 212.43 41.1278C211.816 41.1278 211.271 40.9936 210.794 40.7251C210.316 40.4524 209.941 40.0433 209.669 39.4979C209.396 38.9482 209.26 38.2557 209.26 37.4205V31.1818H210.768V37.3182C210.768 38.0341 210.968 38.6051 211.369 39.0312C211.774 39.4574 212.289 39.6705 212.916 39.6705C213.291 39.6705 213.672 39.5746 214.06 39.3828C214.452 39.1911 214.78 38.897 215.044 38.5007C215.313 38.1044 215.447 37.5994 215.447 36.9858ZM223.707 41.2045C222.787 41.2045 221.994 40.9872 221.329 40.5526C220.665 40.1179 220.153 39.5192 219.795 38.7564C219.437 37.9936 219.258 37.1222 219.258 36.142C219.258 35.1449 219.442 34.2649 219.808 33.5021C220.179 32.7351 220.694 32.1364 221.355 31.706C222.02 31.2713 222.795 31.054 223.682 31.054C224.372 31.054 224.994 31.1818 225.548 31.4375C226.102 31.6932 226.556 32.0511 226.91 32.5114C227.263 32.9716 227.483 33.5085 227.568 34.1222H226.059C225.944 33.6747 225.689 33.2784 225.292 32.9332C224.9 32.5838 224.372 32.4091 223.707 32.4091C223.119 32.4091 222.604 32.5625 222.16 32.8693C221.721 33.1719 221.378 33.6001 221.131 34.1541C220.888 34.7038 220.767 35.3494 220.767 36.0909C220.767 36.8494 220.886 37.5099 221.125 38.0724C221.368 38.6349 221.709 39.0717 222.148 39.3828C222.591 39.6939 223.111 39.8494 223.707 39.8494C224.099 39.8494 224.455 39.7812 224.775 39.6449C225.094 39.5085 225.365 39.3125 225.586 39.0568C225.808 38.8011 225.966 38.4943 226.059 38.1364H227.568C227.483 38.7159 227.272 39.2379 226.935 39.7024C226.603 40.1626 226.162 40.5291 225.612 40.8018C225.067 41.0703 224.432 41.2045 223.707 41.2045ZM234.043 31.1818V32.4602H228.955V31.1818H234.043ZM230.438 28.8295H231.947V38.1875C231.947 38.6136 232.008 38.9332 232.132 39.1463C232.26 39.3551 232.422 39.4957 232.618 39.5682C232.818 39.6364 233.029 39.6705 233.251 39.6705C233.417 39.6705 233.553 39.6619 233.66 39.6449C233.766 39.6236 233.851 39.6065 233.915 39.5938L234.222 40.9489C234.12 40.9872 233.977 41.0256 233.794 41.0639C233.611 41.1065 233.378 41.1278 233.097 41.1278C232.671 41.1278 232.253 41.0362 231.844 40.853C231.439 40.6697 231.103 40.3906 230.834 40.0156C230.57 39.6406 230.438 39.1676 230.438 38.5966V28.8295ZM240.195 41.2045C239.309 41.2045 238.531 40.9936 237.862 40.5717C237.198 40.1499 236.678 39.5597 236.303 38.8011C235.932 38.0426 235.747 37.1562 235.747 36.142C235.747 35.1193 235.932 34.2266 236.303 33.4638C236.678 32.701 237.198 32.1087 237.862 31.6868C238.531 31.2649 239.309 31.054 240.195 31.054C241.082 31.054 241.857 31.2649 242.522 31.6868C243.191 32.1087 243.711 32.701 244.082 33.4638C244.457 34.2266 244.644 35.1193 244.644 36.142C244.644 37.1562 244.457 38.0426 244.082 38.8011C243.711 39.5597 243.191 40.1499 242.522 40.5717C241.857 40.9936 241.082 41.2045 240.195 41.2045ZM240.195 39.8494C240.869 39.8494 241.423 39.6768 241.857 39.3317C242.292 38.9865 242.614 38.5327 242.823 37.9702C243.031 37.4077 243.136 36.7983 243.136 36.142C243.136 35.4858 243.031 34.8743 242.823 34.3075C242.614 33.7408 242.292 33.2827 241.857 32.9332C241.423 32.5838 240.869 32.4091 240.195 32.4091C239.522 32.4091 238.968 32.5838 238.534 32.9332C238.099 33.2827 237.777 33.7408 237.568 34.3075C237.36 34.8743 237.255 35.4858 237.255 36.142C237.255 36.7983 237.36 37.4077 237.568 37.9702C237.777 38.5327 238.099 38.9865 238.534 39.3317C238.968 39.6768 239.522 39.8494 240.195 39.8494ZM246.947 41V31.1818H248.404V32.6648H248.507C248.686 32.179 249.01 31.7848 249.478 31.4822C249.947 31.1797 250.475 31.0284 251.064 31.0284C251.174 31.0284 251.313 31.0305 251.479 31.0348C251.645 31.0391 251.771 31.0455 251.856 31.054V32.5881C251.805 32.5753 251.688 32.5561 251.505 32.5305C251.326 32.5007 251.136 32.4858 250.936 32.4858C250.458 32.4858 250.032 32.5859 249.657 32.7862C249.287 32.9822 248.993 33.255 248.775 33.6044C248.562 33.9496 248.456 34.3437 248.456 34.7869V41H246.947ZM256.534 41.2301C255.911 41.2301 255.347 41.1129 254.84 40.8786C254.333 40.6399 253.93 40.2969 253.632 39.8494C253.333 39.3977 253.184 38.8523 253.184 38.2131C253.184 37.6506 253.295 37.1946 253.517 36.8452C253.738 36.4915 254.034 36.2145 254.405 36.0142C254.776 35.8139 255.185 35.6648 255.632 35.5668C256.084 35.4645 256.538 35.3835 256.994 35.3239C257.59 35.2472 258.074 35.1896 258.445 35.1513C258.82 35.1087 259.093 35.0384 259.263 34.9403C259.438 34.8423 259.525 34.6719 259.525 34.429V34.3778C259.525 33.7472 259.352 33.2571 259.007 32.9077C258.666 32.5582 258.149 32.3835 257.454 32.3835C256.734 32.3835 256.169 32.5412 255.76 32.8565C255.351 33.1719 255.063 33.5085 254.897 33.8665L253.465 33.3551C253.721 32.7585 254.062 32.294 254.488 31.9616C254.919 31.625 255.387 31.3906 255.894 31.2585C256.406 31.1222 256.909 31.054 257.403 31.054C257.718 31.054 258.08 31.0923 258.49 31.169C258.903 31.2415 259.301 31.3928 259.685 31.6229C260.073 31.853 260.394 32.2003 260.65 32.6648C260.906 33.1293 261.034 33.7514 261.034 34.5312V41H259.525V39.6705H259.448C259.346 39.8835 259.176 40.1115 258.937 40.3544C258.698 40.5973 258.381 40.804 257.985 40.9744C257.588 41.1449 257.105 41.2301 256.534 41.2301ZM256.764 39.875C257.36 39.875 257.863 39.7578 258.272 39.5234C258.686 39.2891 258.997 38.9865 259.205 38.6158C259.419 38.245 259.525 37.8551 259.525 37.446V36.0653C259.461 36.142 259.32 36.2124 259.103 36.2763C258.89 36.3359 258.643 36.3892 258.362 36.4361C258.085 36.4787 257.814 36.517 257.55 36.5511C257.29 36.581 257.079 36.6065 256.917 36.6278C256.525 36.679 256.159 36.7621 255.818 36.8771C255.481 36.9879 255.208 37.1562 254.999 37.3821C254.795 37.6037 254.693 37.9062 254.693 38.2898C254.693 38.8139 254.887 39.2102 255.274 39.4787C255.666 39.7429 256.163 39.875 256.764 39.875ZM272.557 41.2045C271.739 41.2045 271.016 40.9979 270.39 40.5845C269.763 40.1669 269.273 39.5788 268.92 38.8203C268.566 38.0575 268.389 37.1562 268.389 36.1165C268.389 35.0852 268.566 34.1903 268.92 33.4318C269.273 32.6733 269.766 32.0874 270.396 31.674C271.027 31.2607 271.756 31.054 272.582 31.054C273.222 31.054 273.727 31.1605 274.097 31.3736C274.472 31.5824 274.758 31.821 274.954 32.0895C275.154 32.3537 275.31 32.571 275.42 32.7415H275.548V27.9091H277.057V41H275.599V39.4915H275.42C275.31 39.6705 275.152 39.8963 274.947 40.169C274.743 40.4375 274.451 40.6783 274.072 40.8913C273.692 41.1001 273.188 41.2045 272.557 41.2045ZM272.761 39.8494C273.366 39.8494 273.878 39.6918 274.295 39.3764C274.713 39.0568 275.031 38.6158 275.248 38.0533C275.465 37.4865 275.574 36.8324 275.574 36.0909C275.574 35.358 275.467 34.7166 275.254 34.1669C275.041 33.6129 274.726 33.1825 274.308 32.8757C273.891 32.5646 273.375 32.4091 272.761 32.4091C272.122 32.4091 271.589 32.5732 271.163 32.9013C270.741 33.2251 270.424 33.6662 270.211 34.2244C270.002 34.7784 269.898 35.4006 269.898 36.0909C269.898 36.7898 270.004 37.4247 270.217 37.9957C270.435 38.5625 270.754 39.0142 271.176 39.3509C271.602 39.6832 272.131 39.8494 272.761 39.8494ZM284.146 41.2045C283.2 41.2045 282.384 40.9957 281.697 40.5781C281.016 40.1562 280.489 39.5682 280.119 38.8139C279.752 38.0554 279.569 37.1733 279.569 36.1676C279.569 35.1619 279.752 34.2756 280.119 33.5085C280.489 32.7372 281.005 32.1364 281.665 31.706C282.33 31.2713 283.106 31.054 283.992 31.054C284.504 31.054 285.009 31.1392 285.507 31.3097C286.006 31.4801 286.46 31.7571 286.869 32.1406C287.278 32.5199 287.604 33.0227 287.847 33.6491C288.089 34.2756 288.211 35.0469 288.211 35.9631V36.6023H280.643V35.2983H286.677C286.677 34.7443 286.566 34.25 286.344 33.8153C286.127 33.3807 285.816 33.0376 285.411 32.7862C285.011 32.5348 284.538 32.4091 283.992 32.4091C283.391 32.4091 282.871 32.5582 282.433 32.8565C281.998 33.1506 281.663 33.5341 281.429 34.0071C281.195 34.4801 281.077 34.9872 281.077 35.5284V36.3977C281.077 37.1392 281.205 37.7678 281.461 38.2834C281.721 38.7947 282.081 39.1847 282.541 39.4531C283.001 39.7173 283.536 39.8494 284.146 39.8494C284.542 39.8494 284.9 39.794 285.219 39.6832C285.543 39.5682 285.822 39.3977 286.057 39.1719C286.291 38.9418 286.472 38.6562 286.6 38.3153L288.058 38.7244C287.904 39.2188 287.646 39.6534 287.284 40.0284C286.922 40.3991 286.474 40.6889 285.942 40.8977C285.409 41.1023 284.81 41.2045 284.146 41.2045ZM299.557 41.2045C298.636 41.2045 297.844 40.9872 297.179 40.5526C296.514 40.1179 296.003 39.5192 295.645 38.7564C295.287 37.9936 295.108 37.1222 295.108 36.142C295.108 35.1449 295.291 34.2649 295.658 33.5021C296.028 32.7351 296.544 32.1364 297.205 31.706C297.869 31.2713 298.645 31.054 299.531 31.054C300.222 31.054 300.844 31.1818 301.398 31.4375C301.952 31.6932 302.406 32.0511 302.759 32.5114C303.113 32.9716 303.332 33.5085 303.418 34.1222H301.909C301.794 33.6747 301.538 33.2784 301.142 32.9332C300.75 32.5838 300.222 32.4091 299.557 32.4091C298.969 32.4091 298.453 32.5625 298.01 32.8693C297.571 33.1719 297.228 33.6001 296.981 34.1541C296.738 34.7038 296.616 35.3494 296.616 36.0909C296.616 36.8494 296.736 37.5099 296.974 38.0724C297.217 38.6349 297.558 39.0717 297.997 39.3828C298.44 39.6939 298.96 39.8494 299.557 39.8494C299.949 39.8494 300.305 39.7812 300.624 39.6449C300.944 39.5085 301.214 39.3125 301.436 39.0568C301.658 38.8011 301.815 38.4943 301.909 38.1364H303.418C303.332 38.7159 303.121 39.2379 302.785 39.7024C302.452 40.1626 302.011 40.5291 301.462 40.8018C300.916 41.0703 300.281 41.2045 299.557 41.2045ZM309.612 41.2045C308.725 41.2045 307.947 40.9936 307.278 40.5717C306.614 40.1499 306.094 39.5597 305.719 38.8011C305.348 38.0426 305.163 37.1562 305.163 36.142C305.163 35.1193 305.348 34.2266 305.719 33.4638C306.094 32.701 306.614 32.1087 307.278 31.6868C307.947 31.2649 308.725 31.054 309.612 31.054C310.498 31.054 311.273 31.2649 311.938 31.6868C312.607 32.1087 313.127 32.701 313.498 33.4638C313.873 34.2266 314.06 35.1193 314.06 36.142C314.06 37.1562 313.873 38.0426 313.498 38.8011C313.127 39.5597 312.607 40.1499 311.938 40.5717C311.273 40.9936 310.498 41.2045 309.612 41.2045ZM309.612 39.8494C310.285 39.8494 310.839 39.6768 311.273 39.3317C311.708 38.9865 312.03 38.5327 312.239 37.9702C312.447 37.4077 312.552 36.7983 312.552 36.142C312.552 35.4858 312.447 34.8743 312.239 34.3075C312.03 33.7408 311.708 33.2827 311.273 32.9332C310.839 32.5838 310.285 32.4091 309.612 32.4091C308.938 32.4091 308.384 32.5838 307.95 32.9332C307.515 33.2827 307.193 33.7408 306.984 34.3075C306.776 34.8743 306.671 35.4858 306.671 36.142C306.671 36.7983 306.776 37.4077 306.984 37.9702C307.193 38.5327 307.515 38.9865 307.95 39.3317C308.384 39.6768 308.938 39.8494 309.612 39.8494ZM317.872 35.0938V41H316.363V31.1818H317.82V32.7159H317.948C318.178 32.2173 318.528 31.8168 318.997 31.5142C319.465 31.2074 320.07 31.054 320.812 31.054C321.477 31.054 322.058 31.1903 322.557 31.4631C323.056 31.7315 323.443 32.1406 323.72 32.6903C323.997 33.2358 324.136 33.9261 324.136 34.7614V41H322.627V34.8636C322.627 34.0923 322.427 33.4915 322.026 33.0611C321.626 32.6264 321.076 32.4091 320.377 32.4091C319.896 32.4091 319.465 32.5135 319.086 32.7223C318.711 32.9311 318.415 33.2358 318.198 33.6364C317.98 34.0369 317.872 34.5227 317.872 35.0938ZM331.162 31.1818V32.4602H326.074V31.1818H331.162ZM327.557 28.8295H329.066V38.1875C329.066 38.6136 329.127 38.9332 329.251 39.1463C329.379 39.3551 329.541 39.4957 329.737 39.5682C329.937 39.6364 330.148 39.6705 330.37 39.6705C330.536 39.6705 330.672 39.6619 330.779 39.6449C330.885 39.6236 330.971 39.6065 331.034 39.5938L331.341 40.9489C331.239 40.9872 331.096 41.0256 330.913 41.0639C330.73 41.1065 330.498 41.1278 330.216 41.1278C329.79 41.1278 329.373 41.0362 328.963 40.853C328.559 40.6697 328.222 40.3906 327.953 40.0156C327.689 39.6406 327.557 39.1676 327.557 38.5966V28.8295ZM337.442 41.2045C336.496 41.2045 335.68 40.9957 334.994 40.5781C334.312 40.1562 333.786 39.5682 333.415 38.8139C333.049 38.0554 332.866 37.1733 332.866 36.1676C332.866 35.1619 333.049 34.2756 333.415 33.5085C333.786 32.7372 334.302 32.1364 334.962 31.706C335.627 31.2713 336.403 31.054 337.289 31.054C337.8 31.054 338.305 31.1392 338.804 31.3097C339.303 31.4801 339.756 31.7571 340.165 32.1406C340.575 32.5199 340.901 33.0227 341.143 33.6491C341.386 34.2756 341.508 35.0469 341.508 35.9631V36.6023H333.94V35.2983H339.974C339.974 34.7443 339.863 34.25 339.641 33.8153C339.424 33.3807 339.113 33.0376 338.708 32.7862C338.308 32.5348 337.835 32.4091 337.289 32.4091C336.688 32.4091 336.168 32.5582 335.729 32.8565C335.295 33.1506 334.96 33.5341 334.726 34.0071C334.491 34.4801 334.374 34.9872 334.374 35.5284V36.3977C334.374 37.1392 334.502 37.7678 334.758 38.2834C335.018 38.7947 335.378 39.1847 335.838 39.4531C336.298 39.7173 336.833 39.8494 337.442 39.8494C337.839 39.8494 338.197 39.794 338.516 39.6832C338.84 39.5682 339.119 39.3977 339.354 39.1719C339.588 38.9418 339.769 38.6562 339.897 38.3153L341.354 38.7244C341.201 39.2188 340.943 39.6534 340.581 40.0284C340.219 40.3991 339.771 40.6889 339.239 40.8977C338.706 41.1023 338.107 41.2045 337.442 41.2045ZM345.311 35.0938V41H343.803V31.1818H345.26V32.7159H345.388C345.618 32.2173 345.967 31.8168 346.436 31.5142C346.905 31.2074 347.51 31.054 348.251 31.054C348.916 31.054 349.498 31.1903 349.996 31.4631C350.495 31.7315 350.883 32.1406 351.16 32.6903C351.437 33.2358 351.575 33.9261 351.575 34.7614V41H350.067V34.8636C350.067 34.0923 349.866 33.4915 349.466 33.0611C349.065 32.6264 348.516 32.4091 347.817 32.4091C347.335 32.4091 346.905 32.5135 346.526 32.7223C346.151 32.9311 345.854 33.2358 345.637 33.6364C345.42 34.0369 345.311 34.5227 345.311 35.0938ZM354.332 41V31.1818H355.84V41H354.332ZM355.099 29.5455C354.805 29.5455 354.551 29.4453 354.338 29.245C354.129 29.0447 354.025 28.804 354.025 28.5227C354.025 28.2415 354.129 28.0007 354.338 27.8004C354.551 27.6001 354.805 27.5 355.099 27.5C355.393 27.5 355.644 27.6001 355.853 27.8004C356.066 28.0007 356.173 28.2415 356.173 28.5227C356.173 28.804 356.066 29.0447 355.853 29.245C355.644 29.4453 355.393 29.5455 355.099 29.5455ZM362.311 41.2045C361.493 41.2045 360.77 40.9979 360.144 40.5845C359.517 40.1669 359.027 39.5788 358.674 38.8203C358.32 38.0575 358.143 37.1562 358.143 36.1165C358.143 35.0852 358.32 34.1903 358.674 33.4318C359.027 32.6733 359.52 32.0874 360.15 31.674C360.781 31.2607 361.51 31.054 362.336 31.054C362.975 31.054 363.48 31.1605 363.851 31.3736C364.226 31.5824 364.512 31.821 364.708 32.0895C364.908 32.3537 365.064 32.571 365.174 32.7415H365.302V27.9091H366.811V41H365.353V39.4915H365.174C365.064 39.6705 364.906 39.8963 364.701 40.169C364.497 40.4375 364.205 40.6783 363.826 40.8913C363.446 41.1001 362.941 41.2045 362.311 41.2045ZM362.515 39.8494C363.12 39.8494 363.632 39.6918 364.049 39.3764C364.467 39.0568 364.784 38.6158 365.002 38.0533C365.219 37.4865 365.328 36.8324 365.328 36.0909C365.328 35.358 365.221 34.7166 365.008 34.1669C364.795 33.6129 364.48 33.1825 364.062 32.8757C363.645 32.5646 363.129 32.4091 362.515 32.4091C361.876 32.4091 361.343 32.5732 360.917 32.9013C360.495 33.2251 360.178 33.6662 359.965 34.2244C359.756 34.7784 359.652 35.4006 359.652 36.0909C359.652 36.7898 359.758 37.4247 359.971 37.9957C360.189 38.5625 360.508 39.0142 360.93 39.3509C361.356 39.6832 361.885 39.8494 362.515 39.8494ZM373.772 41.2045C372.885 41.2045 372.108 40.9936 371.439 40.5717C370.774 40.1499 370.254 39.5597 369.879 38.8011C369.508 38.0426 369.323 37.1562 369.323 36.142C369.323 35.1193 369.508 34.2266 369.879 33.4638C370.254 32.701 370.774 32.1087 371.439 31.6868C372.108 31.2649 372.885 31.054 373.772 31.054C374.658 31.054 375.434 31.2649 376.098 31.6868C376.767 32.1087 377.287 32.701 377.658 33.4638C378.033 34.2266 378.221 35.1193 378.221 36.142C378.221 37.1562 378.033 38.0426 377.658 38.8011C377.287 39.5597 376.767 40.1499 376.098 40.5717C375.434 40.9936 374.658 41.2045 373.772 41.2045ZM373.772 39.8494C374.445 39.8494 374.999 39.6768 375.434 39.3317C375.868 38.9865 376.19 38.5327 376.399 37.9702C376.608 37.4077 376.712 36.7983 376.712 36.142C376.712 35.4858 376.608 34.8743 376.399 34.3075C376.19 33.7408 375.868 33.2827 375.434 32.9332C374.999 32.5838 374.445 32.4091 373.772 32.4091C373.098 32.4091 372.544 32.5838 372.11 32.9332C371.675 33.2827 371.353 33.7408 371.145 34.3075C370.936 34.8743 370.831 35.4858 370.831 36.142C370.831 36.7983 370.936 37.4077 371.145 37.9702C371.353 38.5327 371.675 38.9865 372.11 39.3317C372.544 39.6768 373.098 39.8494 373.772 39.8494ZM387.478 33.3807L386.123 33.7642C386.037 33.5384 385.912 33.3189 385.746 33.1058C385.584 32.8885 385.362 32.7095 385.081 32.5689C384.8 32.4283 384.439 32.358 384.001 32.358C383.4 32.358 382.899 32.4964 382.498 32.7734C382.102 33.0462 381.904 33.3935 381.904 33.8153C381.904 34.1903 382.04 34.4865 382.313 34.7038C382.586 34.9212 383.012 35.1023 383.591 35.2472L385.049 35.6051C385.927 35.8182 386.581 36.1442 387.011 36.5831C387.442 37.0178 387.657 37.5781 387.657 38.2642C387.657 38.8267 387.495 39.3295 387.171 39.7727C386.851 40.2159 386.404 40.5653 385.829 40.821C385.253 41.0767 384.584 41.2045 383.822 41.2045C382.82 41.2045 381.991 40.9872 381.335 40.5526C380.679 40.1179 380.263 39.483 380.089 38.6477L381.52 38.2898C381.657 38.8182 381.915 39.2145 382.294 39.4787C382.677 39.7429 383.178 39.875 383.796 39.875C384.499 39.875 385.057 39.7259 385.471 39.4276C385.888 39.125 386.097 38.7628 386.097 38.3409C386.097 38 385.978 37.7145 385.739 37.4844C385.501 37.25 385.134 37.0753 384.64 36.9602L383.003 36.5767C382.104 36.3636 381.444 36.0334 381.022 35.5859C380.604 35.1342 380.395 34.5696 380.395 33.892C380.395 33.3381 380.551 32.848 380.862 32.4219C381.177 31.9957 381.606 31.6612 382.147 31.4183C382.692 31.1754 383.31 31.054 384.001 31.054C384.972 31.054 385.735 31.267 386.289 31.6932C386.847 32.1193 387.243 32.6818 387.478 33.3807Z" fill="white"/>
<path d="M1.41477 12H0.306818L3.51136 3.27273H4.60227L7.80682 12H6.69886L4.09091 4.65341H4.02273L1.41477 12ZM1.82386 8.59091H6.28977V9.52841H1.82386V8.59091ZM10.6062 12V3.27273H13.5551C14.2369 3.27273 14.7965 3.3892 15.234 3.62216C15.6715 3.85227 15.9954 4.16903 16.2056 4.57244C16.4159 4.97585 16.521 5.43466 16.521 5.94886C16.521 6.46307 16.4159 6.91903 16.2056 7.31676C15.9954 7.71449 15.673 8.02699 15.2383 8.25426C14.8036 8.47869 14.2482 8.59091 13.5721 8.59091H11.1857V7.63636H13.538C14.0039 7.63636 14.3789 7.56818 14.663 7.43182C14.9499 7.29545 15.1573 7.10227 15.2852 6.85227C15.4159 6.59943 15.4812 6.2983 15.4812 5.94886C15.4812 5.59943 15.4159 5.29403 15.2852 5.03267C15.1545 4.77131 14.9457 4.5696 14.6588 4.42756C14.3718 4.28267 13.9926 4.21023 13.521 4.21023H11.663V12H10.6062ZM14.7141 8.07955L16.8619 12H15.6346L13.521 8.07955H14.7141ZM19.2447 4.21023V3.27273H25.7902V4.21023H23.0458V12H21.989V4.21023H19.2447ZM29.918 3.27273V12H28.8612V3.27273H29.918ZM38.2497 5.45455C38.1986 5.02273 37.9912 4.6875 37.6275 4.44886C37.2639 4.21023 36.8179 4.09091 36.2895 4.09091C35.9031 4.09091 35.565 4.15341 35.2753 4.27841C34.9883 4.40341 34.7639 4.57528 34.602 4.79403C34.4429 5.01278 34.3633 5.26136 34.3633 5.53977C34.3633 5.77273 34.4187 5.97301 34.5295 6.14062C34.6432 6.3054 34.7881 6.44318 34.9642 6.55398C35.1403 6.66193 35.325 6.75142 35.5182 6.82244C35.7114 6.89062 35.8889 6.94602 36.0508 6.98864L36.9372 7.22727C37.1645 7.28693 37.4173 7.36932 37.6957 7.47443C37.977 7.57955 38.2454 7.72301 38.5011 7.90483C38.7596 8.08381 38.9727 8.31392 39.1403 8.59517C39.3079 8.87642 39.3917 9.22159 39.3917 9.63068C39.3917 10.1023 39.2682 10.5284 39.021 10.9091C38.7767 11.2898 38.4187 11.5923 37.9471 11.8168C37.4784 12.0412 36.9088 12.1534 36.2383 12.1534C35.6133 12.1534 35.0721 12.0526 34.6148 11.8509C34.1602 11.6491 33.8023 11.3679 33.5409 11.0071C33.2824 10.6463 33.1361 10.2273 33.102 9.75H34.1929C34.2213 10.0795 34.3321 10.3523 34.5253 10.5682C34.7213 10.7812 34.9685 10.9403 35.2667 11.0455C35.5679 11.1477 35.8917 11.1989 36.2383 11.1989C36.6417 11.1989 37.004 11.1335 37.325 11.0028C37.646 10.8693 37.9003 10.6847 38.0878 10.4489C38.2753 10.2102 38.369 9.93182 38.369 9.61364C38.369 9.32386 38.2881 9.08807 38.1261 8.90625C37.9642 8.72443 37.7511 8.5767 37.4869 8.46307C37.2227 8.34943 36.9372 8.25 36.6304 8.16477L35.5565 7.85795C34.8747 7.66193 34.3349 7.3821 33.9372 7.01847C33.5395 6.65483 33.3406 6.17898 33.3406 5.59091C33.3406 5.10227 33.4727 4.67614 33.7369 4.3125C34.004 3.94602 34.3619 3.66193 34.8108 3.46023C35.2625 3.25568 35.7667 3.15341 36.3236 3.15341C36.8861 3.15341 37.3861 3.25426 37.8236 3.45597C38.2611 3.65483 38.6077 3.92756 38.8633 4.27415C39.1219 4.62074 39.2582 5.0142 39.2724 5.45455H38.2497ZM42.092 4.21023V3.27273H48.6375V4.21023H45.8932V12H44.8364V4.21023H42.092ZM51.047 12H49.939L53.1436 3.27273H54.2345L57.439 12H56.3311L53.7231 4.65341H53.6549L51.047 12ZM51.4561 8.59091H55.922V9.52841H51.4561V8.59091Z" fill="#AAAAAA"/>
</svg>
